<svg width="204" height="41" viewBox="0 0 204 41" fill="none" xmlns="http://www.w3.org/2000/svg">
<path d="M17.8066 33.6015V0.370372H26.553V40H18.7096L17.8066 33.6015ZM0.675061 26.3773V25.8355C0.675061 23.7199 0.907266 21.7934 1.37168 20.0562C1.83609 18.3017 2.5241 16.7967 3.43572 15.5411C4.34734 14.2683 5.48256 13.2878 6.84139 12.5998C8.20022 11.9118 9.76545 11.5678 11.5371 11.5678C13.1195 11.5678 14.5042 11.9376 15.691 12.6772C16.8778 13.3996 17.8926 14.4145 18.7354 15.7217C19.5783 17.0289 20.2663 18.5598 20.7995 20.3142C21.3327 22.0514 21.7369 23.9263 22.0121 25.9387V26.5837C21.7369 28.4758 21.3327 30.2646 20.7995 31.9502C20.2663 33.6187 19.5783 35.0979 18.7354 36.3879C17.8926 37.678 16.8692 38.6928 15.6652 39.4324C14.4783 40.1548 13.0851 40.516 11.4855 40.516C9.71385 40.516 8.14862 40.1634 6.78979 39.4582C5.44816 38.753 4.32154 37.764 3.40992 36.4911C2.5155 35.2183 1.83609 33.7219 1.37168 32.0018C0.907266 30.2818 0.675061 28.407 0.675061 26.3773ZM9.36984 25.8355V26.3773C9.36984 27.4265 9.43864 28.3984 9.57625 29.2928C9.71385 30.1872 9.94605 30.9784 10.2729 31.6664C10.6169 32.3372 11.0641 32.8619 11.6145 33.2403C12.1821 33.6187 12.8787 33.8079 13.7043 33.8079C14.8224 33.8079 15.7426 33.5413 16.465 33.0081C17.2046 32.4748 17.7464 31.718 18.0904 30.7376C18.4516 29.7572 18.6064 28.6048 18.5548 27.2803V25.2421C18.5892 24.1069 18.5118 23.1092 18.3226 22.2492C18.1334 21.372 17.8324 20.641 17.4196 20.0562C17.024 19.4714 16.5166 19.0328 15.8974 18.7404C15.2954 18.4307 14.5816 18.2759 13.7559 18.2759C12.9475 18.2759 12.2595 18.4651 11.6919 18.8436C11.1415 19.222 10.6943 19.7552 10.3503 20.4432C10.0063 21.114 9.75685 21.9138 9.60205 22.8426C9.44724 23.7543 9.36984 24.7519 9.36984 25.8355ZM30.3973 26.3257V25.7839C30.3973 23.7371 30.6897 21.8536 31.2745 20.1336C31.8593 18.3963 32.7193 16.8913 33.8545 15.6185C34.9898 14.3457 36.3916 13.3566 38.06 12.6514C39.7285 11.929 41.6549 11.5678 43.8394 11.5678C46.041 11.5678 47.976 11.929 49.6445 12.6514C51.3301 13.3566 52.7405 14.3457 53.8758 15.6185C55.011 16.8913 55.871 18.3963 56.4558 20.1336C57.0406 21.8536 57.333 23.7371 57.333 25.7839V26.3257C57.333 28.3554 57.0406 30.2388 56.4558 31.976C55.871 33.6961 55.011 35.2011 53.8758 36.4911C52.7405 37.764 51.3387 38.753 49.6703 39.4582C48.0018 40.1634 46.0754 40.516 43.891 40.516C41.7065 40.516 39.7715 40.1634 38.0858 39.4582C36.4002 38.753 34.9898 37.764 33.8545 36.4911C32.7193 35.2011 31.8593 33.6961 31.2745 31.976C30.6897 30.2388 30.3973 28.3554 30.3973 26.3257ZM39.0921 25.7839V26.3257C39.0921 27.3749 39.1695 28.3554 39.3243 29.267C39.4791 30.1786 39.7371 30.9784 40.0983 31.6664C40.4595 32.3372 40.9497 32.8619 41.5689 33.2403C42.1881 33.6187 42.9621 33.8079 43.891 33.8079C44.8026 33.8079 45.5594 33.6187 46.1614 33.2403C46.7806 32.8619 47.2708 32.3372 47.632 31.6664C47.9932 30.9784 48.2512 30.1786 48.4061 29.267C48.5609 28.3554 48.6383 27.3749 48.6383 26.3257V25.7839C48.6383 24.7691 48.5609 23.8145 48.4061 22.92C48.2512 22.0084 47.9932 21.2086 47.632 20.5206C47.2708 19.8154 46.7806 19.265 46.1614 18.8694C45.5422 18.4738 44.7682 18.2759 43.8394 18.2759C42.9277 18.2759 42.1623 18.4738 41.5431 18.8694C40.9411 19.265 40.4595 19.8154 40.0983 20.5206C39.7371 21.2086 39.4791 22.0084 39.3243 22.92C39.1695 23.8145 39.0921 24.7691 39.0921 25.7839ZM75.9094 12.0838V18.1211H59.0875V12.0838H75.9094ZM62.6222 5.14347H71.3169V30.8924C71.3169 31.632 71.4029 32.2082 71.5749 32.621C71.7469 33.0167 72.0394 33.3005 72.4522 33.4725C72.8822 33.6273 73.4498 33.7047 74.155 33.7047C74.6538 33.7047 75.0666 33.6961 75.3934 33.6789C75.7202 33.6445 76.0298 33.6015 76.3222 33.5499V39.7678C75.5826 40.0086 74.8086 40.1892 74.0002 40.3096C73.1918 40.4472 72.3318 40.516 71.4201 40.516C69.5625 40.516 67.9715 40.2236 66.647 39.6388C65.3398 39.054 64.3422 38.1338 63.6542 36.8781C62.9662 35.6225 62.6222 33.9885 62.6222 31.976V5.14347ZM111.153 2.43441V40H102.123L88.8355 16.6247V40H79.7795V2.43441H88.8355L102.123 25.8097V2.43441H111.153ZM115.384 26.3257V25.7839C115.384 23.7371 115.677 21.8536 116.261 20.1336C116.846 18.3963 117.706 16.8913 118.842 15.6185C119.977 14.3457 121.379 13.3566 123.047 12.6514C124.715 11.929 126.642 11.5678 128.826 11.5678C131.028 11.5678 132.963 11.929 134.631 12.6514C136.317 13.3566 137.728 14.3457 138.863 15.6185C139.998 16.8913 140.858 18.3963 141.443 20.1336C142.028 21.8536 142.32 23.7371 142.32 25.7839V26.3257C142.32 28.3554 142.028 30.2388 141.443 31.976C140.858 33.6961 139.998 35.2011 138.863 36.4911C137.728 37.764 136.326 38.753 134.657 39.4582C132.989 40.1634 131.062 40.516 128.878 40.516C126.693 40.516 124.758 40.1634 123.073 39.4582C121.387 38.753 119.977 37.764 118.842 36.4911C117.706 35.2011 116.846 33.6961 116.261 31.976C115.677 30.2388 115.384 28.3554 115.384 26.3257ZM124.079 25.7839V26.3257C124.079 27.3749 124.156 28.3554 124.311 29.267C124.466 30.1786 124.724 30.9784 125.085 31.6664C125.446 32.3372 125.937 32.8619 126.556 33.2403C127.175 33.6187 127.949 33.8079 128.878 33.8079C129.79 33.8079 130.546 33.6187 131.148 33.2403C131.768 32.8619 132.258 32.3372 132.619 31.6664C132.98 30.9784 133.238 30.1786 133.393 29.267C133.548 28.3554 133.625 27.3749 133.625 26.3257V25.7839C133.625 24.7691 133.548 23.8145 133.393 22.92C133.238 22.0084 132.98 21.2086 132.619 20.5206C132.258 19.8154 131.768 19.265 131.148 18.8694C130.529 18.4738 129.755 18.2759 128.826 18.2759C127.915 18.2759 127.149 18.4738 126.53 18.8694C125.928 19.265 125.446 19.8154 125.085 20.5206C124.724 21.2086 124.466 22.0084 124.311 22.92C124.156 23.8145 124.079 24.7691 124.079 25.7839ZM160.896 12.0838V18.1211H144.074V12.0838H160.896ZM147.609 5.14347H156.304V30.8924C156.304 31.632 156.39 32.2082 156.562 32.621C156.734 33.0167 157.026 33.3005 157.439 33.4725C157.869 33.6273 158.437 33.7047 159.142 33.7047C159.641 33.7047 160.054 33.6961 160.38 33.6789C160.707 33.6445 161.017 33.6015 161.309 33.5499V39.7678C160.57 40.0086 159.796 40.1892 158.987 40.3096C158.179 40.4472 157.319 40.516 156.407 40.516C154.55 40.516 152.958 40.2236 151.634 39.6388C150.327 39.054 149.329 38.1338 148.641 36.8781C147.953 35.6225 147.609 33.9885 147.609 31.976V5.14347ZM177.873 40.516C175.603 40.516 173.573 40.1634 171.784 39.4582C169.995 38.7358 168.482 37.7468 167.243 36.4911C166.022 35.2355 165.085 33.7907 164.431 32.1566C163.795 30.5226 163.476 28.794 163.476 26.9707V25.9903C163.476 23.9435 163.76 22.0514 164.328 20.3142C164.896 18.5598 165.738 17.0289 166.856 15.7217C167.974 14.4145 169.376 13.3996 171.062 12.6772C172.747 11.9376 174.708 11.5678 176.944 11.5678C178.922 11.5678 180.694 11.886 182.259 12.5224C183.825 13.1588 185.149 14.0705 186.233 15.2573C187.333 16.4441 188.168 17.8803 188.735 19.566C189.32 21.2516 189.612 23.1436 189.612 25.2421V28.7768H166.805V23.3329H181.124V22.662C181.141 21.7332 180.978 20.942 180.634 20.2884C180.307 19.6348 179.825 19.136 179.189 18.792C178.553 18.4479 177.779 18.2759 176.867 18.2759C175.921 18.2759 175.138 18.4824 174.519 18.8952C173.917 19.308 173.444 19.8756 173.1 20.598C172.773 21.3032 172.541 22.1202 172.403 23.049C172.266 23.9779 172.197 24.9583 172.197 25.9903V26.9707C172.197 28.0027 172.335 28.9402 172.61 29.783C172.902 30.6258 173.315 31.3482 173.848 31.9502C174.399 32.535 175.052 32.9909 175.809 33.3177C176.583 33.6445 177.46 33.8079 178.441 33.8079C179.628 33.8079 180.797 33.5843 181.95 33.1371C183.102 32.6898 184.091 31.9502 184.917 30.9182L188.864 35.6139C188.297 36.4223 187.488 37.2049 186.439 37.9618C185.407 38.7186 184.169 39.3378 182.724 39.8194C181.279 40.2838 179.662 40.516 177.873 40.516Z" fill="black"/>
<path d="M193.715 35.9235C193.715 34.6851 194.162 33.6531 195.056 32.8275C195.951 31.9846 197.103 31.5632 198.514 31.5632C199.941 31.5632 201.094 31.9846 201.971 32.8275C202.865 33.6531 203.313 34.6851 203.313 35.9235C203.313 37.1619 202.865 38.2026 201.971 39.0454C201.094 39.871 199.941 40.2838 198.514 40.2838C197.103 40.2838 195.951 39.871 195.056 39.0454C194.162 38.2026 193.715 37.1619 193.715 35.9235Z" fill="#F2BB13"/>
</svg>
