<svg width="1144" height="3456" viewBox="0 0 1144 3456" fill="none" xmlns="http://www.w3.org/2000/svg">
<g clip-path="url(#clip0_4_2)">
<rect width="1144" height="3456" fill="white"/>
<path d="M1133 123L1217.87 171.5V268.5L1133 317L1048.13 268.5V171.5L1133 123Z" fill="#F7D366"/>
<path d="M1216 273L1297.41 320V414L1216 461L1134.59 414V320L1216 273Z" fill="#F7D366"/>
<path d="M1002.5 195L1045.37 219.75V269.25L1002.5 294L959.632 269.25V219.75L1002.5 195Z" fill="#F7D366"/>
<path d="M1048 272L1131.14 320V416L1048 464L964.862 416V320L1048 272Z" fill="#F7D366"/>
<path d="M-69.6359 315.196L53 244.392L175.636 315.196V456.804L53 527.608L-69.6359 456.804V315.196Z" fill="#F7D366" stroke="#F7D366" stroke-width="18"/>
<path d="M66.0914 549.001L180.5 484.338L294.909 549.001V677.999L180.5 742.662L66.0914 677.999V549.001Z" fill="#F7D366" stroke="#F7D366" stroke-width="18"/>
<path d="M-182.378 549.696L-71 485.392L40.3775 549.696V678.304L-71 742.608L-182.378 678.304V549.696Z" fill="#F7D366" stroke="#F7D366" stroke-width="18"/>
<path d="M0 2065H1200V3444H0V2065Z" fill="#F8F8F8"/>
<path d="M158.229 305.188L128.239 294.075L123.178 307.734L120.537 314.86L127.663 317.501L150.527 325.973L158.229 305.188Z" fill="#E7B40B"/>
<rect width="13.933" height="22.1661" transform="matrix(-0.937695 -0.347459 -0.347459 0.937695 158.229 305.188)" fill="#FCC317"/>
<rect width="4.11656" height="22.1661" transform="matrix(-0.937695 -0.347459 -0.347459 0.937695 132.099 295.506)" fill="#4B1D00"/>
<rect width="31.9825" height="2.21661" transform="matrix(-0.937695 -0.347459 -0.347459 0.937695 158.999 303.109)" fill="#6C3A00"/>
<rect width="31.9825" height="2.21661" transform="matrix(-0.937695 -0.347459 -0.347459 0.937695 150.527 325.973)" fill="#6C3A00"/>
<rect width="22.1661" height="2.21661" transform="matrix(-0.347459 0.937695 0.937695 0.347459 158.229 305.188)" fill="#6C3A00"/>
<rect width="22.1661" height="2.21661" transform="matrix(-0.347459 0.937695 0.937695 0.347459 126.16 293.305)" fill="#6C3A00"/>
<rect width="2.21661" height="22.1661" transform="matrix(-0.937695 -0.347459 -0.347459 0.937695 135.959 296.936)" fill="#4B1D00"/>
<rect width="2.21661" height="22.1661" transform="matrix(-0.937695 -0.347459 -0.347459 0.937695 139.819 298.366)" fill="#4B1D00"/>
<rect width="6.01651" height="8.23312" transform="matrix(-0.937695 -0.347459 -0.347459 0.937695 146.273 309.2)" fill="#1F1A1A"/>
<rect width="3.7999" height="8.23312" transform="matrix(-0.937695 -0.347459 -0.347459 0.937695 155.478 312.611)" fill="#1F1A1A"/>
<rect width="2.21661" height="2.21661" transform="matrix(-0.937695 -0.347459 -0.347459 0.937695 146.273 309.2)" fill="#54BCE3"/>
<rect width="1.89995" height="2.21661" transform="matrix(-0.937695 -0.347459 -0.347459 0.937695 153.696 311.951)" fill="#5ABAE5"/>
<rect width="1.89995" height="8.23312" transform="matrix(-0.937695 -0.347459 -0.347459 0.937695 142.413 307.77)" fill="#181414"/>
<rect width="2.21661" height="2.21661" transform="matrix(-0.937695 -0.347459 -0.347459 0.937695 156.029 302.009)" fill="#1F1A1A"/>
<rect width="2.21661" height="2.21661" transform="matrix(-0.937695 -0.347459 -0.347459 0.937695 148.254 303.856)" fill="#1F1A1A"/>
<rect width="2.21661" height="2.21661" transform="matrix(-0.937695 -0.347459 -0.347459 0.937695 155.974 306.716)" fill="#1F1A1A"/>
<rect width="2.21661" height="2.21661" transform="matrix(-0.937695 -0.347459 -0.347459 0.937695 144.328 295.31)" fill="#E9E5CB"/>
<rect x="144.328" y="295.31" width="2.21661" height="2.21661" transform="rotate(20.332 144.328 295.31)" fill="#E9E5CB"/>
<rect width="2.21661" height="2.21661" transform="matrix(-0.937695 -0.347459 -0.347459 0.937695 143.02 292.461)" fill="#E9E5CB"/>
<rect x="147.177" y="294.001" width="2.21661" height="2.21661" transform="rotate(20.332 147.177 294.001)" fill="#E9E5CB"/>
<rect width="2.21661" height="2.21661" transform="matrix(-0.937695 -0.347459 -0.347459 0.937695 140.942 291.691)" fill="#E9E5CB"/>
<rect x="149.256" y="294.771" width="2.21661" height="2.21661" transform="rotate(20.332 149.256 294.771)" fill="#E9E5CB"/>
<rect width="2.21661" height="2.21661" transform="matrix(-0.937695 -0.347459 -0.347459 0.937695 140.172 293.769)" fill="#E9E5CB"/>
<rect x="148.486" y="296.85" width="2.21661" height="2.21661" transform="rotate(20.332 148.486 296.85)" fill="#E9E5CB"/>
<rect width="2.21661" height="2.21661" transform="matrix(-0.937695 -0.347459 -0.347459 0.937695 138.093 292.999)" fill="#E9E5CB"/>
<rect x="150.564" y="297.62" width="2.21661" height="2.21661" transform="rotate(20.332 150.564 297.62)" fill="#E9E5CB"/>
<rect width="2.21661" height="2.21661" transform="matrix(-0.937695 -0.347459 -0.347459 0.937695 136.785 290.15)" fill="#E9E5CB"/>
<rect x="153.413" y="296.312" width="2.21661" height="2.21661" transform="rotate(20.332 153.413 296.312)" fill="#E9E5CB"/>
<rect width="2.21661" height="2.21661" transform="matrix(-0.937695 -0.347459 -0.347459 0.937695 134.706 289.38)" fill="#E9E5CB"/>
<rect x="155.491" y="297.082" width="2.21661" height="2.21661" transform="rotate(20.332 155.491 297.082)" fill="#E9E5CB"/>
<rect width="2.21661" height="2.21661" transform="matrix(-0.937695 -0.347459 -0.347459 0.937695 133.936 291.459)" fill="#E9E5CB"/>
<rect x="154.721" y="299.16" width="2.21661" height="2.21661" transform="rotate(20.332 154.721 299.16)" fill="#E9E5CB"/>
<rect width="2.21661" height="2.21661" transform="matrix(-0.937695 -0.347459 -0.347459 0.937695 131.858 290.688)" fill="#E9E5CB"/>
<rect x="156.8" y="299.931" width="2.21661" height="2.21661" transform="rotate(20.332 156.8 299.931)" fill="#E9E5CB"/>
<rect width="2.21661" height="2.21661" transform="matrix(-0.937695 -0.347459 -0.347459 0.937695 130.549 287.84)" fill="#E9E5CB"/>
<rect x="159.648" y="298.622" width="2.21661" height="2.21661" transform="rotate(20.332 159.648 298.622)" fill="#E9E5CB"/>
<rect width="2.21661" height="2.21661" transform="matrix(-0.937695 -0.347459 -0.347459 0.937695 131.319 285.761)" fill="#E9E5CB"/>
<rect x="160.418" y="296.544" width="2.21661" height="2.21661" transform="rotate(20.332 160.418 296.544)" fill="#E9E5CB"/>
<rect width="2.21661" height="2.21661" transform="matrix(-0.937695 -0.347459 -0.347459 0.937695 134.168 284.453)" fill="#E9E5CB"/>
<rect x="159.11" y="293.695" width="2.21661" height="2.21661" transform="rotate(20.332 159.11 293.695)" fill="#E9E5CB"/>
<rect width="2.21661" height="2.21661" transform="matrix(-0.937695 -0.347459 -0.347459 0.937695 136.247 285.223)" fill="#E9E5CB"/>
<rect x="157.032" y="292.925" width="2.21661" height="2.21661" transform="rotate(20.332 157.032 292.925)" fill="#E9E5CB"/>
<rect width="2.21661" height="2.21661" transform="matrix(-0.937695 -0.347459 -0.347459 0.937695 137.555 288.072)" fill="#E9E5CB"/>
<rect x="154.183" y="294.233" width="2.21661" height="2.21661" transform="rotate(20.332 154.183 294.233)" fill="#E9E5CB"/>
<rect width="2.21661" height="2.21661" transform="matrix(-0.937695 -0.347459 -0.347459 0.937695 139.633 288.842)" fill="#E9E5CB"/>
<rect x="152.104" y="293.463" width="2.21661" height="2.21661" transform="rotate(20.332 152.104 293.463)" fill="#E9E5CB"/>
<rect width="2.21661" height="2.21661" transform="matrix(-0.937695 -0.347459 -0.347459 0.937695 158.823 305.408)" fill="#1F1A1A"/>
<rect width="2.21661" height="2.21661" transform="matrix(-0.937695 -0.347459 -0.347459 0.937695 160.901 306.178)" fill="#1F1A1A"/>
<rect width="2.21661" height="2.21661" transform="matrix(-0.937695 -0.347459 -0.347459 0.937695 163.75 304.87)" fill="#1F1A1A"/>
<rect width="4.43322" height="2.21661" transform="matrix(-0.937695 -0.347459 -0.347459 0.937695 153.181 303.317)" fill="#1F1A1A"/>
<rect width="4.43322" height="2.21661" transform="matrix(0.347459 -0.937695 -0.937695 -0.347459 142.575 330.118)" fill="#3B1400"/>
<rect width="4.43322" height="2.21661" transform="matrix(0.347459 -0.937695 -0.937695 -0.347459 138.714 328.688)" fill="#4B1C01"/>
<rect width="4.43322" height="2.21661" transform="matrix(0.347459 -0.937695 -0.937695 -0.347459 130.994 325.827)" fill="#4B1C01"/>
<rect width="4.43322" height="2.21661" transform="matrix(0.347459 -0.937695 -0.937695 -0.347459 123.274 322.966)" fill="#4B1C01"/>
<path d="M121.099 306.964L121.979 304.588L120.72 304.797L119.164 304.896L121.099 306.964Z" fill="#E6E6E6"/>
<rect width="4.43322" height="2.21661" transform="matrix(0.347459 -0.937695 -0.937695 -0.347459 134.854 327.257)" fill="#3B1400"/>
<rect width="4.43322" height="2.21661" transform="matrix(0.347459 -0.937695 -0.937695 -0.347459 127.134 324.397)" fill="#3B1400"/>
<path d="M1060.25 220.454L1032.47 228L1035.91 240.651L1037.7 247.252L1044.3 245.459L1065.48 239.707L1060.25 220.454Z" fill="#E7B40B"/>
<rect width="12.5399" height="19.9499" transform="matrix(-0.96503 0.262139 0.262139 0.96503 1060.25 220.454)" fill="#FCC317"/>
<rect width="3.70498" height="19.9499" transform="matrix(-0.96503 0.262139 0.262139 0.96503 1036.04 227.029)" fill="#4B1D00"/>
<rect width="28.7849" height="1.99499" transform="matrix(-0.96503 0.262139 0.262139 0.96503 1059.72 218.529)" fill="#6C3A00"/>
<rect width="28.7849" height="1.99499" transform="matrix(-0.96503 0.262139 0.262139 0.96503 1065.48 239.707)" fill="#6C3A00"/>
<rect width="19.9499" height="1.99499" transform="matrix(0.262139 0.96503 0.96503 -0.262139 1060.25 220.454)" fill="#6C3A00"/>
<rect width="19.9499" height="1.99499" transform="matrix(0.262139 0.96503 0.96503 -0.262139 1030.54 228.523)" fill="#6C3A00"/>
<rect width="1.99499" height="19.9499" transform="matrix(-0.96503 0.262139 0.262139 0.96503 1039.62 226.058)" fill="#4B1D00"/>
<rect width="1.99499" height="19.9499" transform="matrix(-0.96503 0.262139 0.262139 0.96503 1043.2 225.086)" fill="#4B1D00"/>
<rect width="5.41498" height="7.40997" transform="matrix(-0.96503 0.262139 0.262139 0.96503 1053.59 229.646)" fill="#1F1A1A"/>
<rect width="3.41999" height="7.40997" transform="matrix(-0.96503 0.262139 0.262139 0.96503 1062.11 227.33)" fill="#1F1A1A"/>
<rect width="1.99499" height="1.99499" transform="matrix(-0.96503 0.262139 0.262139 0.96503 1053.59 229.646)" fill="#54BCE3"/>
<rect width="1.70999" height="1.99499" transform="matrix(-0.96503 0.262139 0.262139 0.96503 1060.46 227.778)" fill="#5ABAE5"/>
<rect width="1.70999" height="7.40997" transform="matrix(-0.96503 0.262139 0.262139 0.96503 1050.01 230.617)" fill="#181414"/>
<rect width="1.99499" height="1.99499" transform="matrix(-0.96503 0.262139 0.262139 0.96503 1056.97 219.276)" fill="#1F1A1A"/>
<rect width="1.99499" height="1.99499" transform="matrix(-0.96503 0.262139 0.262139 0.96503 1052.24 224.696)" fill="#1F1A1A"/>
<rect width="1.99499" height="1.99499" transform="matrix(-0.96503 0.262139 0.262139 0.96503 1059.4 222.753)" fill="#1F1A1A"/>
<rect width="1.99499" height="1.99499" transform="matrix(-0.96503 0.262139 0.262139 0.96503 1044.9 220.489)" fill="#E9E5CB"/>
<rect x="1044.9" y="220.489" width="1.99499" height="1.99499" transform="rotate(-15.197 1044.9 220.489)" fill="#E9E5CB"/>
<rect width="1.99499" height="1.99499" transform="matrix(-0.96503 0.262139 0.262139 0.96503 1042.45 219.087)" fill="#E9E5CB"/>
<rect x="1046.3" y="218.041" width="1.99499" height="1.99499" transform="rotate(-15.197 1046.3 218.041)" fill="#E9E5CB"/>
<rect width="1.99499" height="1.99499" transform="matrix(-0.96503 0.262139 0.262139 0.96503 1040.53 219.609)" fill="#E9E5CB"/>
<rect x="1048.23" y="217.518" width="1.99499" height="1.99499" transform="rotate(-15.197 1048.23 217.518)" fill="#E9E5CB"/>
<rect width="1.99499" height="1.99499" transform="matrix(-0.96503 0.262139 0.262139 0.96503 1041.05 221.535)" fill="#E9E5CB"/>
<rect x="1048.75" y="219.443" width="1.99499" height="1.99499" transform="rotate(-15.197 1048.75 219.443)" fill="#E9E5CB"/>
<rect width="1.99499" height="1.99499" transform="matrix(-0.96503 0.262139 0.262139 0.96503 1039.12 222.058)" fill="#E9E5CB"/>
<rect x="1050.68" y="218.92" width="1.99499" height="1.99499" transform="rotate(-15.197 1050.68 218.92)" fill="#E9E5CB"/>
<rect width="1.99499" height="1.99499" transform="matrix(-0.96503 0.262139 0.262139 0.96503 1036.68 220.655)" fill="#E9E5CB"/>
<rect x="1052.08" y="216.472" width="1.99499" height="1.99499" transform="rotate(-15.197 1052.08 216.472)" fill="#E9E5CB"/>
<rect width="1.99499" height="1.99499" transform="matrix(-0.96503 0.262139 0.262139 0.96503 1034.75 221.178)" fill="#E9E5CB"/>
<rect x="1054" y="215.949" width="1.99499" height="1.99499" transform="rotate(-15.197 1054 215.949)" fill="#E9E5CB"/>
<rect width="1.99499" height="1.99499" transform="matrix(-0.96503 0.262139 0.262139 0.96503 1035.27 223.104)" fill="#E9E5CB"/>
<rect x="1054.53" y="217.874" width="1.99499" height="1.99499" transform="rotate(-15.197 1054.53 217.874)" fill="#E9E5CB"/>
<rect width="1.99499" height="1.99499" transform="matrix(-0.96503 0.262139 0.262139 0.96503 1033.35 223.627)" fill="#E9E5CB"/>
<rect x="1056.45" y="217.351" width="1.99499" height="1.99499" transform="rotate(-15.197 1056.45 217.351)" fill="#E9E5CB"/>
<rect width="1.99499" height="1.99499" transform="matrix(-0.96503 0.262139 0.262139 0.96503 1030.9 222.224)" fill="#E9E5CB"/>
<rect x="1057.85" y="214.903" width="1.99499" height="1.99499" transform="rotate(-15.197 1057.85 214.903)" fill="#E9E5CB"/>
<rect width="1.99499" height="1.99499" transform="matrix(-0.96503 0.262139 0.262139 0.96503 1030.38 220.299)" fill="#E9E5CB"/>
<rect x="1057.33" y="212.978" width="1.99499" height="1.99499" transform="rotate(-15.197 1057.33 212.978)" fill="#E9E5CB"/>
<rect width="1.99499" height="1.99499" transform="matrix(-0.96503 0.262139 0.262139 0.96503 1031.78 217.851)" fill="#E9E5CB"/>
<rect x="1054.88" y="211.575" width="1.99499" height="1.99499" transform="rotate(-15.197 1054.88 211.575)" fill="#E9E5CB"/>
<rect width="1.99499" height="1.99499" transform="matrix(-0.96503 0.262139 0.262139 0.96503 1033.7 217.328)" fill="#E9E5CB"/>
<rect x="1052.96" y="212.098" width="1.99499" height="1.99499" transform="rotate(-15.197 1052.96 212.098)" fill="#E9E5CB"/>
<rect width="1.99499" height="1.99499" transform="matrix(-0.96503 0.262139 0.262139 0.96503 1036.15 218.73)" fill="#E9E5CB"/>
<rect x="1051.55" y="214.546" width="1.99499" height="1.99499" transform="rotate(-15.197 1051.55 214.546)" fill="#E9E5CB"/>
<rect width="1.99499" height="1.99499" transform="matrix(-0.96503 0.262139 0.262139 0.96503 1038.08 218.207)" fill="#E9E5CB"/>
<rect x="1049.63" y="215.069" width="1.99499" height="1.99499" transform="rotate(-15.197 1049.63 215.069)" fill="#E9E5CB"/>
<rect width="1.99499" height="1.99499" transform="matrix(-0.96503 0.262139 0.262139 0.96503 1060.8 220.305)" fill="#1F1A1A"/>
<rect width="1.99499" height="1.99499" transform="matrix(-0.96503 0.262139 0.262139 0.96503 1062.72 219.782)" fill="#1F1A1A"/>
<rect width="1.99499" height="1.99499" transform="matrix(-0.96503 0.262139 0.262139 0.96503 1064.12 217.334)" fill="#1F1A1A"/>
<rect width="3.98998" height="1.99499" transform="matrix(-0.96503 0.262139 0.262139 0.96503 1055.57 221.724)" fill="#1F1A1A"/>
<rect width="3.98998" height="1.99499" transform="matrix(-0.262139 -0.96503 -0.96503 0.262139 1061.82 246.902)" fill="#3B1400"/>
<rect width="3.98998" height="1.99499" transform="matrix(-0.262139 -0.96503 -0.96503 0.262139 1058.24 247.873)" fill="#4B1C01"/>
<rect width="3.98998" height="1.99499" transform="matrix(-0.262139 -0.96503 -0.96503 0.262139 1051.09 249.815)" fill="#4B1C01"/>
<rect width="3.98998" height="1.99499" transform="matrix(-0.262139 -0.96503 -0.96503 0.262139 1043.94 251.758)" fill="#4B1C01"/>
<path d="M1033.98 241.174L1033.38 238.974L1032.57 239.786L1031.48 240.672L1033.98 241.174Z" fill="#E6E6E6"/>
<rect width="3.98998" height="1.99499" transform="matrix(-0.262139 -0.96503 -0.96503 0.262139 1054.67 248.844)" fill="#3B1400"/>
<rect width="3.98998" height="1.99499" transform="matrix(-0.262139 -0.96503 -0.96503 0.262139 1047.52 250.787)" fill="#3B1400"/>
</g>
<defs>
<clipPath id="clip0_4_2">
<rect width="1144" height="3456" fill="white"/>
</clipPath>
</defs>
</svg>
